<svg viewBox="0 0 800 600" xmlns="http://www.w3.org/2000/svg">
  <defs>
    <linearGradient id="a" x1="356.57" y1="241.5" x2="317.38" y2="328.17" gradientUnits="userSpaceOnUse">
      <stop stop-color="#ccc" />
      <stop offset="1" stop-color="#333" />
    </linearGradient>
    <linearGradient id="b" x1="488.86" y1="160.76" x2="406.49" y2="336.06" gradientUnits="userSpaceOnUse">
      <stop stop-color="#ecdf8c" />
      <stop offset="1" stop-color="#a87c24" />
    </linearGradient>
  </defs>
  <g fill="#4d4d4d">
    <path d="M100.3 429.4v-64.1h11.2v64.1H100.3zm51.4 0v-27.8h-32.1v-9.9h32.1v-26.4h11.2v64.1H151.7z" />
    <path d="M176.3 429.1v-63.9h11.2v63.9H176.3z" />
    <path d="M230 429.1c-4.4 0-8.6-.8-12.3-2.5-3.8-1.7-7-4-9.8-6.9-2.8-2.9-4.9-6.3-6.5-10.3-1.6-4-2.3-8.3-2.3-12.9 0-4.7.8-9 2.3-12.8 1.6-3.9 3.7-7.2 6.5-9.9 2.8-2.7 6.1-4.8 9.8-6.3 3.8-1.5 7.9-2.2 12.3-2.2h34.6v11.2H230c-2.9 0-5.5.5-7.9 1.5-2.4 1-4.5 2.4-6.3 4.3-1.8 1.8-3.1 4-4.1 6.5-1 2.5-1.5 5.3-1.5 8.3 0 3 .5 5.8 1.5 8.3 1 2.6 2.4 4.8 4.1 6.6 1.8 1.8 3.8 3.3 6.3 4.3 2.4 1.1 5.1 1.6 7.9 1.6h27.3v-16.6h-28.8V392h40v37.2H230z" />
    <path d="M280.7 429.4v-64.1h11.2v64.1H280.7zm51.3 0v-27.8h-32.1v-9.9H332v-26.4h11.2v64.1H332z" />
    <path d="M433.8 407.8l-9.9 18.7c-.6 1.2-1.5 2-2.5 2.6-1 .6-2.1.9-3.2.9-2.6 0-4.5-1.2-5.8-3.5l-33-61.2h13.4l25.8 49.1 9.7-17.4-16.6-31.7H425l24.7 49.1 26-49.1h12.5l-33 61.2c-.6 1.2-1.5 2-2.5 2.6-1 .6-2.1.9-3.3.9-1.2 0-2.3-.3-3.3-.9-1-.6-1.8-1.5-2.5-2.6l-9.9-18.7z" />
    <path d="M496.7 429.1v-63.9h57.1v11.2h-45.9V418h46v11.2H496.7zm19.3-27.7V392h35.4v9.4H516z" />
    <path d="M565.2 429.1V418H613c3 0 5.3-.8 6.9-2.3 1.6-1.5 2.4-3.5 2.4-6.1 0-2.8-.8-4.9-2.4-6.2-1.6-1.3-3.9-2-6.9-2h-29.3c-3 0-5.7-.5-8.1-1.4-2.4-.9-4.5-2.2-6.1-3.8-1.7-1.6-3-3.5-3.9-5.8-.9-2.2-1.4-4.7-1.4-7.3 0-2.6.4-5 1.3-7.2.8-2.2 2.1-4.1 3.8-5.7 1.7-1.6 3.7-2.8 6.2-3.7 2.5-.9 5.3-1.4 8.4-1.4h45.9v11.2h-45.9c-2.6 0-4.6.7-6 2.1-1.4 1.4-2.1 3.3-2.1 5.8 0 2.5.7 4.4 2.1 5.7 1.4 1.3 3.4 2 5.8 2H613c6.5 0 11.5 1.5 14.8 4.6 3.3 3 5 7.7 5 13.9 0 2.7-.4 5.2-1.2 7.5-.8 2.3-2 4.3-3.7 5.9-1.6 1.7-3.7 3-6.2 3.9-2.5.9-5.4 1.4-8.7 1.4h-48z" />
    <path d="M664.7 429.1v-52.7h-24.2v-11.2h59.6v11.2h-24.2v52.7h-11.2z" />
  </g>
  <g fill="#999">
    <path d="M200.4 460.5c.1 4.8-2.8 9.6-9.4 9.6-2.3 0-5.1 0-7.4 0v-18.8c2.3 0 5.1 0 7.4 0 6.5.4 9.4 5 9.4 9.2zm-13.2 6.2h3.9c4.3 0 6-3.1 5.9-6.2-.1-2.9-1.8-5.9-5.9-5.9h-3.9v12.1z" />
    <path d="M224.9 470.1h-14.1v-18.8h14.1v3.4h-10.6v4.3h10.2v3.3h-10.2v4.3h10.6v3.5z" />
    <path d="M246.2 470.2h-3.7l-7.8-18.9h4l5.7 14.7 5.7-14.7h4l-7.9 18.9z" />
    <path d="M278.4 470.1h-14.1v-18.8h14.1v3.4h-10.6v4.3H278v3.3h-10.2v4.3h10.6v3.5z" />
    <path d="M292.7 451.3v15.6h9.7v3.3h-13.2v-18.8h3.5z" />
    <path d="M330.9 460.8c-.1 4.9-3 9.7-9.7 9.7s-9.7-4.8-9.7-9.7 3.2-9.9 9.7-9.9c6.6 0 9.8 5 9.7 9.9zm-15.8.1c.1 3.1 1.7 6.4 6.2 6.4 4.4 0 6.1-3.3 6.2-6.4.1-3.2-1.7-6.7-6.2-6.7-4.5-.1-6.3 3.5-6.2 6.7z" />
    <path d="M350.5 464.6h-5.3v5.5h-3.6v-18.8c3 0 5.9 0 8.9 0 9.2 0 9.2 13.3 0 13.3zm-5.3-3.3h5.3c4.5 0 4.5-6.7 0-6.7h-5.3v6.7z" />
    <path d="M384.3 456.5l-6.1 8.2h-.7l-6-8.2v13.7h-3.6v-18.8h4.1l5.9 8.1 5.9-8.1h4.1v18.8h-3.6v-13.7z" />
    <path d="M413.3 470.1h-14.1v-18.8h14.1v3.4h-10.6v4.3h10.2v3.3h-10.2v4.3h10.6v3.5z" />
    <path d="M437.1 451.3h3.6v18.9h-2.2l-9.9-12.7v12.7H425v-18.8h2.9l9.2 11.7v-11.8z" />
    <path d="M456.8 454.5h-6v-3.2c5.4 0 10 0 15.5 0v3.2h-6v15.6h-3.6v-15.6z" />
    <path d="M504.1 455.9c-1.3-1.2-3.1-1.9-4.8-1.9-4 0-6.5 3.1-6.5 6.9 0 3.1 1.8 6.3 6.5 6.3 1.5 0 2.8-.3 4.3-1.5v-3.3h-4.8v-3.2h8.1v7.9c-1.9 2.1-4.2 3.4-7.5 3.4-7.1 0-10-4.7-10-9.6 0-5.3 3.3-10.2 10-10.2 2.5 0 5.1 1 7 2.9l-2.3 2.3z" />
    <path d="M534.2 470.1H530l-5.5-6.3h-3.4v6.3h-3.6v-18.9c3 0 6 0 9 0 4.4 0 6.8 3 6.8 6.2 0 2.6-1.2 5.2-4.8 5.9l5.7 6.4v.4zm-13.1-15.5v6h5.4c2.3 0 3.2-1.5 3.2-3s-1-3-3.2-3h-5.4z" />
    <path d="M562.2 460.8c-.1 4.9-3 9.7-9.7 9.7-6.6 0-9.7-4.8-9.7-9.7s3.2-9.9 9.7-9.9c6.6 0 9.8 5 9.7 9.9zm-15.8.1c.1 3.1 1.7 6.4 6.2 6.4 4.4 0 6.1-3.3 6.2-6.4.1-3.2-1.7-6.7-6.2-6.7-4.5-.1-6.3 3.5-6.2 6.7z" />
    <path d="M589.4 451.3v10.8c0 5.6-3.4 8.4-8.2 8.4-4.5 0-8.4-2.7-8.4-8.4v-10.8h3.5v10.8c0 3.4 1.9 5.2 4.9 5.2 2.9 0 4.6-2 4.6-5.2v-10.8h3.6z" />
    <path d="M609.9 464.6h-5.3v5.5H601v-18.8c3 0 5.9 0 8.9 0 9.2 0 9.2 13.3 0 13.3zm-5.4-3.3h5.3c4.5 0 4.5-6.7 0-6.7h-5.3v6.7z" />
  </g>
  <path
    d="M311.2 224L248.1 336h78.6l13.9-27 17.6 27h21.3L311.2 224zm3.8 94.7h-37.1l33.5-60.6 19.2 31.1L315 318.7z"
    fill="url(#a)"
  />
  <path
    d="M418.9 127.9L362.8 224l-28.2-43.8-10.1 20.3L406.3 336h146l-133.4-208.1zm-39.3 118.9l42-72 88.9 139.7h-90.1l-40.8-67.7z"
    fill="url(#b)"
  />
</svg>
