<svg fill="currentColor" viewBox="0 0 215 47" xmlns="http://www.w3.org/2000/svg">
  <path d="M55.488 42.672C55.728 42.672 55.92 42.84 55.92 43.08C55.92 43.32 55.728 43.512 55.488 43.512C51.336 43.512 47.664 42.432 44.616 40.344C42.192 38.688 40.128 36.36 38.52 33.456C36.48 29.712 35.688 26.016 35.4 24.36C32.52 27.6 30.624 29.976 30.48 30.168C28.08 34.032 25.464 38.136 25.416 38.208C25.344 38.328 25.2 38.4 25.056 38.4C24.984 38.4 24.912 38.376 24.84 38.328C24.648 38.208 24.6 37.944 24.72 37.752C24.792 37.656 31.512 27.12 33.216 23.928C33.456 23.52 33.696 23.064 33.936 22.608C36.48 18 39.96 11.688 38.4 7.17602C37.752 5.37602 36.384 4.03202 34.176 3.09601C27.912 0.456015 14.304 4.56001 6.69599 11.376C3.47999 14.256 -1.46627e-05 18.792 1.58399 24.096C2.80799 28.152 7.29599 31.272 13.92 32.688C14.136 32.736 14.28 32.952 14.232 33.168C14.184 33.408 13.968 33.552 13.728 33.504C10.368 32.784 7.51199 31.656 5.30399 30.12C2.97599 28.536 1.46399 26.592 0.791985 24.336C0.0719853 21.96 0.239985 19.536 1.29599 17.088C2.23199 14.928 3.86399 12.792 6.11999 10.752C9.86399 7.41602 15.192 4.53602 20.76 2.88002C26.352 1.20002 31.344 1.00801 34.512 2.32802C36.912 3.36002 38.472 4.89602 39.192 6.91202C40.872 11.76 37.296 18.264 34.68 23.016C34.44 23.472 34.176 23.904 33.96 24.336C33.792 24.648 33.576 25.008 33.336 25.44C33.96 24.744 34.632 23.976 35.376 23.136C35.376 23.136 35.4 23.136 35.4 23.112C37.08 21.264 39.048 19.2 41.184 17.112C49.848 8.66402 57.048 4.20002 62.568 3.79202C62.808 3.76801 63 3.93601 63.024 4.17601C63.048 4.39202 62.856 4.60801 62.64 4.63202C57.384 5.01602 50.184 9.52802 41.76 17.712C39.696 19.728 37.776 21.744 36.144 23.544C36.264 24.48 36.912 28.8 39.288 33.072C42.792 39.432 48.264 42.672 55.488 42.672ZM53.3895 28.848C53.2455 28.896 53.0055 28.944 52.6935 29.016C49.7175 29.736 46.6215 30.384 44.4615 30.384C43.3575 30.384 42.4935 30.216 42.0135 29.784C41.7015 29.496 41.5575 29.112 41.6055 28.68C41.6535 28.416 41.7255 28.176 41.8455 27.936C41.8455 27.912 41.8455 27.888 41.8695 27.888C42.1335 27.336 42.6375 26.808 43.2375 26.448C43.8135 26.112 44.3415 25.944 44.9415 25.92C45.4455 25.896 45.7815 25.992 46.0215 26.184C46.3095 26.472 46.3575 26.952 46.0935 27.432C45.6855 28.224 44.5095 28.92 42.4935 28.56C42.4695 28.632 42.4695 28.704 42.4455 28.776C42.4215 28.992 42.4935 29.088 42.5895 29.16C42.8775 29.424 43.8135 29.784 47.0055 29.328C49.0935 29.016 51.3015 28.488 52.5015 28.2C52.8135 28.128 53.0535 28.056 53.2215 28.032C53.4375 27.984 53.6535 28.128 53.7015 28.344C53.7735 28.584 53.6295 28.8 53.3895 28.848ZM43.6695 27.168C43.3815 27.336 43.1415 27.552 42.9255 27.792C44.4375 27.96 45.0615 27.432 45.2295 27.24C45.3975 27.024 45.4215 26.856 45.4215 26.808C45.3735 26.784 45.2535 26.736 44.9655 26.76C44.5095 26.76 44.1255 26.904 43.6695 27.168ZM66.6275 28.056C66.8195 27.936 67.0835 28.008 67.2035 28.2C67.2995 28.416 67.2275 28.68 67.0355 28.776C65.8595 29.424 64.1075 29.664 62.4275 29.664C60.5555 29.664 58.7795 29.376 58.0595 29.04C58.0355 29.016 58.0115 29.016 57.9875 29.016C57.0035 29.52 55.8755 30.024 54.6755 30.336C54.5075 30.384 54.1715 30.456 53.8355 30.456C53.4755 30.456 53.0915 30.36 52.8755 30.024C52.2515 29.04 53.8595 26.88 54.5795 26.016C54.7235 25.824 54.9875 25.8 55.1795 25.944C55.3475 26.088 55.3715 26.352 55.2275 26.544C55.2275 26.544 54.6755 27.216 54.2195 27.96C53.4035 29.256 53.5715 29.568 53.5715 29.568C53.5715 29.568 53.7395 29.712 54.4595 29.52C55.5395 29.232 56.5715 28.8 57.4835 28.32C57.4595 28.032 57.6035 27.84 57.6995 27.768C57.9875 27.504 58.4435 27.576 58.6595 27.648C59.8835 26.904 60.6755 26.232 60.6995 26.232C60.8915 26.088 61.1555 26.112 61.2995 26.28C61.4435 26.472 61.4195 26.736 61.2275 26.88C61.1795 26.928 60.2915 27.648 58.9475 28.464C60.6035 28.848 64.5875 29.16 66.6275 28.056ZM69.7858 30.384C68.1778 30.384 67.1698 30.024 66.7618 29.352C65.9938 28.08 67.5058 26.4 67.6978 26.208C67.8418 26.04 68.1058 26.016 68.2738 26.184C68.4418 26.328 68.4658 26.592 68.2978 26.76C67.9618 27.12 67.0978 28.296 67.4818 28.92C67.7938 29.424 69.4498 30.384 78.1378 28.032C78.3538 27.984 78.5938 28.104 78.6418 28.344C78.7138 28.56 78.5698 28.8 78.3538 28.848C74.5858 29.856 71.7298 30.384 69.7858 30.384ZM69.5698 25.8C68.6338 25.8 67.9378 25.344 67.9378 24.72C67.9378 24.12 68.6338 23.64 69.5698 23.64C70.5058 23.64 71.2018 24.12 71.2018 24.72C71.2018 25.344 70.5058 25.8 69.5698 25.8ZM69.5698 24.48C69.1138 24.48 68.8498 24.648 68.7778 24.72C68.8498 24.816 69.1138 24.96 69.5698 24.96C70.0258 24.96 70.2898 24.816 70.3618 24.72C70.2898 24.648 70.0258 24.48 69.5698 24.48ZM95.357 28.032C95.573 27.96 95.813 28.08 95.885 28.32C95.957 28.536 95.813 28.776 95.597 28.848C95.333 28.92 88.901 30.864 84.173 30.864C83.237 30.864 82.661 30.6 82.445 30.048C82.205 29.4 82.661 28.512 83.237 27.744L77.045 30.624C76.877 30.696 76.661 30.648 76.541 30.504C76.421 30.336 76.421 30.12 76.541 29.976L79.805 25.992C79.949 25.8 80.213 25.776 80.405 25.92C80.573 26.064 80.621 26.328 80.453 26.52L78.365 29.088L84.773 26.088C84.965 25.992 85.181 26.064 85.301 26.232C85.421 26.4 85.397 26.64 85.229 26.784C84.125 27.816 83.045 29.256 83.237 29.76C83.309 29.928 83.645 30.024 84.173 30.024C88.757 30.024 95.285 28.056 95.357 28.032ZM154.248 2.47201C160.68 4.08002 164.928 7.24802 166.152 11.4C166.992 14.232 166.44 17.184 164.496 20.232C160.416 26.616 150.408 32.424 141.192 33.744C138.72 34.104 136.224 33.816 134.232 33L130.008 38.136C129.936 38.232 129.816 38.304 129.672 38.304C129.6 38.304 129.504 38.256 129.408 38.208C129.24 38.04 129.216 37.776 129.36 37.608L133.44 32.616C133.056 32.424 132.696 32.184 132.36 31.944C131.16 31.032 130.44 29.88 130.248 28.584C130.008 26.76 130.872 24.888 132.696 23.328C134.448 21.792 136.92 20.736 139.656 20.304C141.024 20.112 142.368 20.088 143.64 20.208L149.064 13.608C149.208 13.44 149.472 13.392 149.664 13.56C149.832 13.704 149.856 13.968 149.712 14.136L144.624 20.352C146.232 20.64 147.648 21.216 148.776 22.056C150 22.968 150.744 24.144 150.912 25.44C150.96 25.68 150.792 25.896 150.576 25.92C150.336 25.968 150.12 25.8 150.096 25.56C149.952 24.48 149.304 23.496 148.272 22.728C147.144 21.888 145.656 21.336 144 21.096L134.808 32.304C136.608 32.976 138.888 33.216 141.072 32.904C150.072 31.632 159.816 25.968 163.8 19.776C165.6 16.944 166.128 14.208 165.36 11.64C162.936 3.55202 148.224 1.62125e-05 132.552 3.72002C121.944 6.21601 113.208 11.52 109.728 17.544C108.216 20.136 107.808 22.656 108.528 25.008C109.728 29.064 114.216 32.184 120.84 33.6C121.056 33.648 121.224 33.864 121.176 34.08C121.128 34.296 120.936 34.416 120.744 34.416C120.72 34.416 120.696 34.416 120.672 34.416C117.288 33.696 114.456 32.568 112.224 31.032C109.896 29.448 108.384 27.504 107.712 25.248C106.944 22.704 107.4 19.872 108.984 17.112C112.584 10.896 121.536 5.44802 132.36 2.90401C140.112 1.05601 147.888 0.912016 154.248 2.47201ZM132.864 31.272C133.2 31.512 133.584 31.752 133.992 31.968L142.992 21C141.96 20.928 140.88 20.976 139.776 21.144C134.544 21.936 130.632 25.224 131.088 28.464C131.232 29.544 131.832 30.48 132.864 31.272ZM172.78 28.848C172.636 28.896 172.396 28.944 172.084 29.016C169.108 29.736 166.012 30.384 163.852 30.384C162.748 30.384 161.884 30.216 161.404 29.784C161.092 29.496 160.948 29.112 160.996 28.68C161.044 28.416 161.116 28.176 161.236 27.936C161.236 27.912 161.236 27.888 161.26 27.888C161.524 27.336 162.028 26.808 162.628 26.448C163.204 26.112 163.732 25.944 164.332 25.92C164.836 25.896 165.172 25.992 165.412 26.184C165.7 26.472 165.748 26.952 165.484 27.432C165.076 28.224 163.9 28.92 161.884 28.56C161.86 28.632 161.86 28.704 161.836 28.776C161.812 28.992 161.884 29.088 161.98 29.16C162.268 29.424 163.204 29.784 166.396 29.328C168.484 29.016 170.692 28.488 171.892 28.2C172.204 28.128 172.444 28.056 172.612 28.032C172.828 27.984 173.044 28.128 173.092 28.344C173.164 28.584 173.02 28.8 172.78 28.848ZM163.06 27.168C162.772 27.336 162.532 27.552 162.316 27.792C163.828 27.96 164.452 27.432 164.62 27.24C164.788 27.024 164.812 26.856 164.812 26.808C164.764 26.784 164.644 26.736 164.356 26.76C163.9 26.76 163.516 26.904 163.06 27.168ZM187.41 28.296C187.482 28.512 187.362 28.752 187.146 28.824C187.026 28.872 184.098 29.688 179.634 29.688C178.458 29.688 177.69 29.256 177.234 28.584C176.85 28.032 176.73 27.528 176.778 26.952L171.57 30.576C171.498 30.624 171.426 30.648 171.33 30.648C171.234 30.648 171.114 30.6 171.042 30.528C170.898 30.36 170.874 30.12 171.018 29.976L174.282 25.968C174.426 25.8 174.69 25.776 174.858 25.92C175.05 26.064 175.074 26.328 174.93 26.496L173.466 28.32L177.066 25.56C177.21 25.44 177.546 25.56 177.69 25.656C177.834 25.776 177.906 25.968 177.834 26.16C177.834 26.16 177.378 27.312 177.93 28.128C178.218 28.56 178.77 28.848 179.634 28.848C183.954 28.848 186.858 28.032 186.882 28.032C187.098 27.96 187.338 28.08 187.41 28.296ZM201.66 28.296C201.732 28.512 201.612 28.752 201.396 28.824C201.276 28.872 198.348 29.688 193.884 29.688C192.708 29.688 191.94 29.256 191.484 28.584C191.1 28.032 190.98 27.528 191.028 26.952L185.82 30.576C185.748 30.624 185.676 30.648 185.58 30.648C185.484 30.648 185.364 30.6 185.292 30.528C185.148 30.36 185.124 30.12 185.268 29.976L188.532 25.968C188.676 25.8 188.94 25.776 189.108 25.92C189.3 26.064 189.324 26.328 189.18 26.496L187.716 28.32L191.316 25.56C191.46 25.44 191.796 25.56 191.94 25.656C192.084 25.776 192.156 25.968 192.084 26.16C192.084 26.16 191.628 27.312 192.18 28.128C192.468 28.56 193.02 28.848 193.884 28.848C198.204 28.848 201.108 28.032 201.132 28.032C201.348 27.96 201.588 28.08 201.66 28.296ZM214.782 28.32C214.83 28.536 214.71 28.776 214.494 28.848C211.662 29.64 208.278 31.056 204.75 32.88C204.006 34.032 203.19 35.28 202.278 36.504C197.502 43.056 193.062 46.368 189.102 46.368C187.83 46.368 187.494 45.84 187.446 45.408C187.134 43.128 194.43 38.136 196.686 36.648C199.134 35.04 201.678 33.552 204.15 32.256C205.014 30.864 205.758 29.592 206.31 28.584C205.134 29.544 202.998 30.912 201.318 30.912C200.982 30.912 200.622 30.84 200.43 30.504C200.094 29.952 200.382 29.064 201.366 27.624C202.014 26.688 202.71 25.896 202.734 25.848C202.902 25.68 203.166 25.656 203.334 25.8C203.502 25.968 203.526 26.232 203.382 26.4C203.382 26.4 202.686 27.192 202.086 28.08C201.006 29.64 201.126 30.048 201.126 30.048C201.15 30.048 201.174 30.072 201.318 30.072C203.454 30.072 206.094 27.768 207.558 26.304C207.99 25.872 208.47 26.208 208.254 26.76C208.23 26.784 207.246 28.8 205.59 31.512C208.734 29.952 211.71 28.752 214.254 28.032C214.47 27.96 214.71 28.104 214.782 28.32ZM189.102 45.528C194.262 45.528 199.614 39.12 203.214 33.696C201.198 34.8 199.134 36.048 197.142 37.344C191.214 41.256 188.142 44.352 188.262 45.288C188.286 45.48 188.718 45.528 189.102 45.528Z" />
</svg>
